<svg xmlns="http://www.w3.org/2000/svg" width="64" height="64" fill="none" viewBox="0 0 64 64"><clipPath id="a" width="64" height="64" x="0" y="0" maskUnits="userSpaceOnUse" style="mask-type:luminance"><path fill="#fff" d="M64 0H0v64h64z" style="fill:#fff;fill-opacity:1"></path></clipPath><g clip-path="url(#a)"><path fill="#fff" d="M32 64c17.673 0 32-14.327 32-32S49.673 0 32 0 0 14.327 0 32s14.327 32 32 32" style="fill:#fff;fill-opacity:1"></path><path fill="#1e5b00" d="M64 32C64 14.327 49.673 0 32 0a31.84 31.84 0 0 0-16 4.292v55.416A31.84 31.84 0 0 0 32 64c17.673 0 32-14.327 32-32" style="fill:#1e5b00;fill:color(display-p3 .1176 .3569 0);fill-opacity:1"></path><path fill="#fff" d="M29.333 26.667c0-3.052.855-5.903 2.338-8.33C27.07 21.147 24 26.215 24 32c0 8.837 7.163 16 16 16 5.785 0 10.852-3.07 13.663-7.67a15.9 15.9 0 0 1-8.33 2.337c-8.836 0-16-7.164-16-16M48 18.667l-4 4 4 4 4-4z" style="fill:#fff;fill-opacity:1"></path></g></svg>