<svg xmlns="http://www.w3.org/2000/svg" width="88" height="88" fill="none" viewBox="0 0 88 88"><rect width="87" height="87" x=".5" y=".5" fill="#000" fill-opacity=".2" rx="9.5"/><rect width="87" height="87" x=".5" y=".5" stroke="#faff69" rx="9.5"/><path fill="#faff69" d="M60.04 22.64C55.74 20.29 50.04 19 44 19s-11.73 1.3-16.03 3.64C23.47 25.09 21 28.4 21 32v24c0 3.59 2.47 6.91 6.97 9.36C32.27 67.71 37.97 69 44 69s11.74-1.3 16.03-3.64C64.54 62.91 67 59.6 67 56V32c0-3.59-2.47-6.91-6.97-9.36M65 56c0 2.82-2.1 5.52-5.92 7.6C55.07 65.8 49.7 67 44 67s-11.07-1.2-15.08-3.4C25.1 61.53 23 58.83 23 56v-6.63a16 16 0 0 0 4.97 4c4.3 2.35 10 3.64 16.03 3.64s11.74-1.3 16.03-3.64q3.2-1.75 4.97-4zm0-12c0 2.82-2.1 5.52-5.92 7.6C55.07 53.8 49.7 55 44 55s-11.07-1.2-15.08-3.4C25.1 49.53 23 46.83 23 44v-6.63a16 16 0 0 0 4.97 4c4.3 2.35 10 3.64 16.03 3.64s11.74-1.3 16.03-3.64q3.2-1.75 4.97-4zm-5.92-4.4C55.07 41.8 49.7 43 44 43s-11.07-1.2-15.08-3.4C25.1 37.53 23 34.83 23 32s2.1-5.52 5.92-7.6C32.93 22.2 38.3 21 44 21s11.07 1.2 15.08 3.4C62.9 26.47 65 29.17 65 32s-2.1 5.52-5.92 7.6"/></svg>